<?xml version="1.0" encoding="utf-8"?>
<!-- Generator: Adobe Illustrator 16.0.0, SVG Export Plug-In . SVG Version: 6.00 Build 0)  -->
<!DOCTYPE svg PUBLIC "-//W3C//DTD SVG 1.1//EN" "http://www.w3.org/Graphics/SVG/1.1/DTD/svg11.dtd">
<svg version="1.1" id="Layer_1" xmlns="http://www.w3.org/2000/svg" xmlns:xlink="http://www.w3.org/1999/xlink" x="0px" y="0px"
	 width="250.507px" height="59.293px" viewBox="0 0 250.507 59.293" enable-background="new 0 0 250.507 59.293"
	 xml:space="preserve">
<g>
	<path fill="#2B85BB" d="M70.437,32.738c0,1.632,0.663,2.106,2.567,2.106h3.06c1.819,0,2.482-0.491,2.482-2.125v-7.31h2.839v7.599
		c0,3.111-1.173,4.199-4.811,4.199h-4.182c-3.468,0-4.777-1.188-4.777-4.199V25.41h2.822V32.738z"/>
	<path fill="#2B85BB" d="M83.646,32.279v-1.496c0-4.607,1.224-5.373,5.61-5.373h2.516c4.624,0,5.78,0.697,5.78,4.012h-2.924
		c-0.017-0.918-0.306-1.394-2.992-1.394H89.46c-2.55,0-2.958,0.221-2.958,2.72v1.292c0,2.295,0.408,2.618,2.856,2.618h2.312
		c2.499,0,2.992-0.223,2.975-1.549h2.924c0.017,3.146-0.782,4.115-5.831,4.115h-2.584C84.818,37.227,83.646,36.189,83.646,32.279z"
		/>
	<path fill="#2B85BB" d="M109.099,25.411c2.958,0,4.369,1.071,4.369,3.332h-3.043c-0.017-0.714-0.255-0.986-1.445-0.986h-4.743
		c-0.799,0-1.377,0.204-1.377,1.105c0,0.935,0.561,0.969,1.377,1.003l5.219,0.204c2.669,0.102,4.029,0.442,4.029,3.553
		c0,2.517-1.02,3.587-3.978,3.587h-5.848c-3.009,0-3.978-1.07-3.978-3.35h2.89c0,0.578,0.578,0.985,1.377,0.985h4.726
		c1.241,0,1.853-0.237,1.853-1.188c0-0.85-0.357-1.241-1.972-1.311l-4.522-0.187c-3.196-0.138-4.369-0.408-4.369-3.332
		c0-2.516,1.224-3.417,4.25-3.417L109.099,25.411L109.099,25.411z"/>
	<path fill="#2B85BB" d="M128.156,25.411v2.346h-9.231v2.176h8.942v2.363h-8.942v4.913h-2.839V25.411H128.156z"/>
	<path fill="#2B85BB" d="M141.722,25.411v9.418h7.259v2.38h-10.099V25.411H141.722z"/>
	<path fill="#2B85BB" d="M151.494,25.411h2.821v11.798h-2.821V25.411z"/>
	<path fill="#2B85BB" d="M169.762,28.352c0,2.023-0.272,2.261-0.952,2.583c0.918,0.188,1.562,0.73,1.562,2.805
		c0,2.517-0.814,3.469-3.264,3.469h-9.962V25.411h9.011C168.945,25.411,169.762,26.278,169.762,28.352z M165.732,29.848
		c0.748,0,1.207-0.238,1.207-1.037c0-0.765-0.441-1.054-1.225-1.054h-5.729v2.091H165.732z M166.158,34.846
		c0.883,0,1.377-0.356,1.377-1.394c0-0.97-0.527-1.241-1.479-1.241h-6.069v2.635H166.158z"/>
	<path fill="#2B85BB" d="M185.775,37.209h-2.839v-1.836c0-1.156-0.612-1.684-1.921-1.684h-5.576v3.52H172.6V25.411h8.755
		c3.061,0,4.301,1.037,4.301,3.774v0.816c0,1.343-0.188,2.04-0.935,2.517c0.646,0.237,1.054,0.851,1.054,2.243V37.209
		L185.775,37.209z M182.833,29.457c0-0.918-0.355-1.224-1.41-1.224h-6.034v2.652h6.103c0.986,0,1.344-0.306,1.344-1.19v-0.238
		H182.833z"/>
	<path fill="#2B85BB" d="M197.828,25.411l6.086,11.798H200.6l-1.429-2.839h-7.157l-1.444,2.839h-3.298l6.086-11.798H197.828z
		 M195.567,27.621l-2.329,4.386h4.709l-2.244-4.386H195.567z"/>
	<path fill="#2B85BB" d="M218.449,37.209h-2.839v-1.836c0-1.156-0.612-1.684-1.922-1.684h-5.575v3.52h-2.84V25.411h8.756
		c3.061,0,4.301,1.037,4.301,3.774v0.816c0,1.343-0.188,2.04-0.936,2.517c0.646,0.237,1.055,0.851,1.055,2.243V37.209
		L218.449,37.209z M215.507,29.457c0-0.918-0.355-1.224-1.41-1.224h-6.035v2.652h6.104c0.986,0,1.344-0.306,1.344-1.19v-0.238
		H215.507z"/>
	<path fill="#2B85BB" d="M226.298,30.732l3.843-5.322h3.229l-5.66,7.82v3.979h-2.84V33.23l-5.797-7.82h3.383L226.298,30.732z"/>
</g>
<g>
	<path fill="#2B85BB" d="M83.312,49.998c-0.389,0.422-0.777,0.547-1.565,0.547c-1.366,0-1.669-0.65-1.669-1.681
		c0-1.052,0.241-1.681,1.669-1.681c1.019,0,1.239,0.116,1.481,0.482h0.021v-0.977c0-0.789-0.073-1.061-1.187-1.061
		c-1.103,0-1.124,0.271-1.124,0.955h-0.672V46.3c0-0.651,0.158-1.28,1.828-1.28c1.491,0,1.828,0.482,1.828,1.521v3.918h-0.609
		L83.312,49.998L83.312,49.998z M82.03,49.873c0.893,0,1.281-0.221,1.281-1.041c0-0.818-0.389-1.039-1.281-1.039
		c-0.892,0-1.281,0.221-1.281,1.039C80.749,49.652,81.138,49.873,82.03,49.873z"/>
	<path fill="#2B85BB" d="M85.244,45.105h0.672v0.691h0.021c0.336-0.577,0.703-0.775,1.48-0.775c1.239,0,1.575,0.619,1.575,1.658
		v3.78H88.32v-3.623c0-0.619-0.137-1.207-1.019-1.207c-0.819,0-1.386,0.313-1.386,1.448v3.382h-0.672L85.244,45.105L85.244,45.105z"
		/>
	<path fill="#2B85BB" d="M93.519,49.788h-0.021c-0.252,0.536-0.62,0.757-1.376,0.757c-1.491,0-1.901-0.662-1.901-2.763
		s0.41-2.761,1.796-2.761c0.609,0,1.113,0.125,1.481,0.754h0.021v-2.918h0.672v7.604h-0.672V49.788z M92.238,49.873
		c1.123,0,1.281-0.398,1.281-2.404c0-1.313-0.315-1.775-1.281-1.775c-1.05,0-1.282,0.242-1.282,2.09
		C90.957,49.631,91.188,49.873,92.238,49.873z"/>
	<path fill="#2B85BB" d="M103.727,48.508c0,1.648-0.515,2.037-2.353,2.037c-2.006,0-2.689-0.379-2.689-2.604v-2.562
		c0-2.229,0.683-2.605,2.689-2.605c1.68,0,2.353,0.222,2.353,1.984v0.547h-0.672v-0.494c0-1.187-0.389-1.302-1.68-1.302
		c-1.732,0-1.953,0.229-1.953,1.911v2.479c0,1.682,0.221,1.912,1.953,1.912c1.533,0,1.68-0.336,1.68-1.377V47.93h0.672V48.508z"/>
	<path fill="#2B85BB" d="M105.585,47.939v0.494c0,1.166,0.2,1.502,1.124,1.502c1.082,0,1.313-0.021,1.313-1.071h0.672v0.2
		c0,1.07-0.263,1.479-1.869,1.479c-1.765,0-1.975-0.587-1.975-2.763c0-2.217,0.357-2.762,1.975-2.762c1.606,0,1.869,0.65,1.869,2.11
		v0.81H105.585L105.585,47.939z M108.022,47.268c0-1.133-0.021-1.637-1.218-1.637c-1.197,0-1.219,0.504-1.219,1.637H108.022z"/>
	<path fill="#2B85BB" d="M110.017,45.105h0.672v0.691h0.021c0.336-0.577,0.704-0.775,1.481-0.775c1.239,0,1.575,0.619,1.575,1.658
		v3.78h-0.672v-3.623c0-0.619-0.136-1.207-1.019-1.207c-0.819,0-1.386,0.313-1.386,1.448v3.382h-0.672V45.105z"/>
	<path fill="#2B85BB" d="M115.268,45.714h-0.556v-0.608h0.556v-1.238h0.672v1.238h1.733v0.608h-1.733v3.581
		c0,0.441,0.137,0.641,0.579,0.641c0.503,0,0.724-0.094,0.724-1.28h0.61c0,1.713-0.546,1.891-1.324,1.891
		c-0.987,0-1.26-0.305-1.26-1.104L115.268,45.714L115.268,45.714z"/>
	<path fill="#2B85BB" d="M119.436,47.939v0.494c0,1.166,0.2,1.502,1.125,1.502c1.082,0,1.313-0.021,1.313-1.071h0.673v0.2
		c0,1.07-0.263,1.479-1.87,1.479c-1.765,0-1.974-0.587-1.974-2.763c0-2.217,0.357-2.762,1.974-2.762c1.607,0,1.87,0.65,1.87,2.11
		v0.81H119.436L119.436,47.939z M121.873,47.268c0-1.133-0.021-1.637-1.219-1.637c-1.196,0-1.218,0.504-1.218,1.637H121.873z"/>
	<path fill="#2B85BB" d="M123.868,45.105h0.672v0.65h0.021c0.252-0.516,0.567-0.734,1.239-0.734c0.852,0,1.238,0.367,1.238,1.438
		v0.43h-0.608c0.011-0.986-0.104-1.259-0.871-1.259c-0.672-0.012-1.019,0.367-1.019,1.103v3.729h-0.672V45.105z"/>
	<path fill="#2B85BB" d="M131.46,45.714h-0.662v-0.608h0.662v-0.967c0-0.988,0.463-1.365,1.398-1.365
		c0.156,0,0.314,0.012,0.471,0.021v0.598c-0.146-0.01-0.293-0.01-0.438-0.01c-0.442,0-0.757,0.146-0.757,0.756v0.967h1.176v0.608
		h-1.176v4.747h-0.674V45.714L131.46,45.714z"/>
	<path fill="#2B85BB" d="M135.904,45.021c1.764,0,1.975,0.629,1.975,2.761c0,2.216-0.23,2.763-1.975,2.763s-1.976-0.547-1.976-2.763
		C133.929,45.65,134.139,45.021,135.904,45.021z M135.904,49.936c1.07,0,1.238-0.156,1.238-2.152c0-1.994-0.168-2.151-1.238-2.151
		c-1.072,0-1.24,0.157-1.24,2.151S134.832,49.936,135.904,49.936z"/>
	<path fill="#2B85BB" d="M139.106,45.105h0.672v0.65h0.021c0.254-0.516,0.568-0.734,1.24-0.734c0.852,0,1.238,0.367,1.238,1.438
		v0.43h-0.607c0.011-0.986-0.105-1.259-0.873-1.259c-0.672-0.012-1.019,0.367-1.019,1.103v3.729h-0.672V45.105L139.106,45.105z"/>
	<path fill="#2B85BB" d="M146.416,42.857h0.735v3.297h0.683l2.572-3.297h0.913l-2.866,3.676l3.182,3.928h-0.944l-2.899-3.57h-0.639
		v3.57h-0.736V42.857L146.416,42.857z"/>
	<path fill="#2B85BB" d="M152.181,45.105h0.673v0.691h0.021c0.336-0.577,0.703-0.775,1.48-0.775c1.24,0,1.575,0.619,1.575,1.658
		v3.78h-0.673v-3.623c0-0.619-0.137-1.207-1.02-1.207c-0.818,0-1.385,0.313-1.385,1.448v3.382h-0.673L152.181,45.105L152.181,45.105
		z"/>
	<path fill="#2B85BB" d="M159.134,45.021c1.763,0,1.974,0.629,1.974,2.761c0,2.216-0.229,2.763-1.974,2.763
		s-1.975-0.547-1.975-2.763C157.16,45.65,157.369,45.021,159.134,45.021z M159.134,49.936c1.07,0,1.238-0.156,1.238-2.152
		c0-1.994-0.168-2.151-1.238-2.151c-1.072,0-1.241,0.157-1.241,2.151S158.062,49.936,159.134,49.936z"/>
	<path fill="#2B85BB" d="M161.854,45.105h0.661l1.061,4.672h0.021l1.008-4.672h0.966l1.009,4.683h0.021l1.061-4.683h0.662
		l-1.271,5.354h-0.978l-0.977-4.685h-0.021L164.1,50.46h-0.978L161.854,45.105z"/>
	<path fill="#2B85BB" d="M169.341,42.857h0.672v7.604h-0.672V42.857z"/>
	<path fill="#2B85BB" d="M172.155,47.939v0.494c0,1.166,0.2,1.502,1.123,1.502c1.082,0,1.313-0.021,1.313-1.071h0.671v0.2
		c0,1.07-0.263,1.479-1.869,1.479c-1.765,0-1.976-0.587-1.976-2.763c0-2.217,0.357-2.762,1.976-2.762c1.606,0,1.869,0.65,1.869,2.11
		v0.81H172.155L172.155,47.939z M174.591,47.268c0-1.133-0.021-1.637-1.219-1.637c-1.197,0-1.218,0.504-1.218,1.637H174.591z"/>
	<path fill="#2B85BB" d="M179.791,49.788h-0.021c-0.252,0.536-0.619,0.757-1.376,0.757c-1.491,0-1.899-0.662-1.899-2.763
		s0.408-2.761,1.795-2.761c0.608,0,1.112,0.125,1.48,0.754h0.021v-2.918h0.672v7.604h-0.672V49.788z M178.507,49.873
		c1.125,0,1.283-0.398,1.283-2.404c0-1.313-0.315-1.775-1.283-1.775c-1.049,0-1.28,0.242-1.28,2.09S177.458,49.873,178.507,49.873z"
		/>
	<path fill="#2B85BB" d="M185.115,49.495h-0.023c-0.271,0.599-0.744,0.776-1.396,0.776c-1.731,0-1.848-1.146-1.848-2.625
		c0-1.48,0.114-2.625,1.848-2.625c0.683,0,1.104,0.166,1.396,0.808h0.023v-0.724h0.672v5.303c0,1.586-0.494,2.027-2.134,2.027
		c-1.038,0-1.681-0.369-1.657-1.492h0.672c0,0.631,0.271,0.818,1.135,0.818c1.092,0,1.312-0.229,1.312-1.48V49.495L185.115,49.495z
		 M183.759,49.6c1.092,0,1.355-0.432,1.355-1.953c0-1.522-0.265-1.953-1.355-1.953c-1.081,0-1.176,0.535-1.176,1.953
		S182.677,49.6,183.759,49.6z"/>
	<path fill="#2B85BB" d="M187.75,47.939v0.494c0,1.166,0.199,1.502,1.123,1.502c1.082,0,1.312-0.021,1.312-1.071h0.673v0.2
		c0,1.07-0.262,1.479-1.868,1.479c-1.766,0-1.975-0.587-1.975-2.763c0-2.217,0.355-2.762,1.975-2.762c1.606,0,1.868,0.65,1.868,2.11
		v0.81H187.75L187.75,47.939z M190.185,47.268c0-1.133-0.02-1.637-1.219-1.637c-1.194,0-1.217,0.504-1.217,1.637H190.185z"/>
	<path fill="#2B85BB" d="M195.394,42.857h1.229l2.301,6.709h0.021l2.302-6.709h1.229v7.604h-0.736v-6.806h-0.021l-2.383,6.806
		h-0.797l-2.386-6.806h-0.021v6.806h-0.736V42.857L195.394,42.857z"/>
	<path fill="#2B85BB" d="M207.02,49.998c-0.388,0.422-0.776,0.547-1.563,0.547c-1.365,0-1.67-0.65-1.67-1.681
		c0-1.052,0.24-1.681,1.67-1.681c1.02,0,1.237,0.116,1.479,0.482h0.021v-0.977c0-0.789-0.072-1.061-1.186-1.061
		c-1.104,0-1.124,0.271-1.124,0.955h-0.671V46.3c0-0.651,0.156-1.28,1.826-1.28c1.492,0,1.828,0.482,1.828,1.521v3.918h-0.61V49.998
		z M205.74,49.873c0.893,0,1.279-0.221,1.279-1.041c0-0.818-0.389-1.039-1.279-1.039c-0.896,0-1.283,0.221-1.283,1.039
		C204.457,49.652,204.845,49.873,205.74,49.873z"/>
	<path fill="#2B85BB" d="M208.951,45.105h0.674v0.691h0.021c0.337-0.577,0.704-0.775,1.481-0.775c1.238,0,1.574,0.619,1.574,1.658
		v3.78h-0.672v-3.623c0-0.619-0.137-1.207-1.02-1.207c-0.818,0-1.385,0.313-1.385,1.448v3.382h-0.674V45.105L208.951,45.105z"/>
	<path fill="#2B85BB" d="M217.164,49.998c-0.388,0.422-0.776,0.547-1.563,0.547c-1.365,0-1.67-0.65-1.67-1.681
		c0-1.052,0.241-1.681,1.67-1.681c1.021,0,1.239,0.116,1.481,0.482h0.021v-0.977c0-0.789-0.074-1.061-1.188-1.061
		c-1.103,0-1.123,0.271-1.123,0.955h-0.672V46.3c0-0.651,0.157-1.28,1.827-1.28c1.491,0,1.828,0.482,1.828,1.521v3.918h-0.61V49.998
		z M215.882,49.873c0.895,0,1.281-0.221,1.281-1.041c0-0.818-0.388-1.039-1.281-1.039c-0.893,0-1.28,0.221-1.28,1.039
		C214.602,49.652,214.99,49.873,215.882,49.873z"/>
	<path fill="#2B85BB" d="M222.362,49.495h-0.021c-0.271,0.599-0.745,0.776-1.396,0.776c-1.733,0-1.85-1.146-1.85-2.625
		c0-1.48,0.116-2.625,1.85-2.625c0.681,0,1.103,0.166,1.396,0.808h0.021v-0.724h0.673v5.303c0,1.586-0.494,2.027-2.133,2.027
		c-1.039,0-1.68-0.369-1.658-1.492h0.672c0,0.631,0.272,0.818,1.135,0.818c1.091,0,1.312-0.229,1.312-1.48L222.362,49.495
		L222.362,49.495z M221.007,49.6c1.094,0,1.354-0.432,1.354-1.953c0-1.522-0.262-1.953-1.354-1.953
		c-1.082,0-1.176,0.535-1.176,1.953S219.925,49.6,221.007,49.6z"/>
	<path fill="#2B85BB" d="M224.998,47.939v0.494c0,1.166,0.201,1.502,1.123,1.502c1.084,0,1.314-0.021,1.314-1.071h0.672v0.2
		c0,1.07-0.264,1.479-1.869,1.479c-1.766,0-1.975-0.587-1.975-2.763c0-2.217,0.357-2.762,1.975-2.762c1.605,0,1.869,0.65,1.869,2.11
		v0.81H224.998L224.998,47.939z M227.436,47.268c0-1.133-0.021-1.637-1.22-1.637c-1.197,0-1.219,0.504-1.219,1.637H227.436z"/>
	<path fill="#2B85BB" d="M229.431,45.105h0.672v0.797h0.02c0.338-0.576,0.662-0.881,1.42-0.881c0.713,0,1.26,0.155,1.533,0.871
		c0.409-0.651,0.852-0.871,1.605-0.871c1.082,0,1.597,0.524,1.597,1.584v3.854h-0.672v-3.465c0-1.072-0.44-1.304-1.124-1.304
		c-0.861,0-1.291,0.348-1.291,1.396v3.371h-0.673v-3.707c0-0.799-0.325-1.061-1.062-1.061c-0.977,0-1.354,0.588-1.354,1.701v3.065
		h-0.672V45.105L229.431,45.105z"/>
	<path fill="#2B85BB" d="M238.242,47.939v0.494c0,1.166,0.199,1.502,1.123,1.502c1.081,0,1.312-0.021,1.312-1.071h0.672v0.2
		c0,1.07-0.262,1.479-1.868,1.479c-1.765,0-1.976-0.587-1.976-2.763c0-2.217,0.356-2.762,1.976-2.762c1.606,0,1.868,0.65,1.868,2.11
		v0.81H238.242L238.242,47.939z M240.677,47.268c0-1.133-0.02-1.637-1.219-1.637c-1.195,0-1.217,0.504-1.217,1.637H240.677z"/>
	<path fill="#2B85BB" d="M242.673,45.105h0.67v0.691h0.023c0.336-0.577,0.702-0.775,1.479-0.775c1.239,0,1.575,0.619,1.575,1.658
		v3.78h-0.672v-3.623c0-0.619-0.139-1.207-1.02-1.207c-0.818,0-1.389,0.313-1.389,1.448v3.382h-0.67v-5.354H242.673z"/>
	<path fill="#2B85BB" d="M247.923,45.714h-0.557v-0.608h0.557v-1.238h0.672v1.238h1.732v0.608h-1.732v3.581
		c0,0.441,0.138,0.641,0.578,0.641c0.504,0,0.726-0.094,0.726-1.28h0.608c0,1.713-0.547,1.891-1.323,1.891
		c-0.985,0-1.261-0.305-1.261-1.104V45.714z"/>
</g>
<g>
	<path fill="#2B85BB" d="M30.106,39.75V7.916c1.5-2.813,2.83-3.563,4.313-4.553c0,3.713,0,30.307,0,31.366
		C32.274,36.24,30.429,38.604,30.106,39.75z M32.685,41.479c-0.312-0.268-0.775-0.455-1.135-0.66
		c0.515-1.014,1.813-3.209,3.962-4.522l0.558-0.332V8.51c1.1-1.594,3.501-2.211,4.717-2.303c0,2.49,0,29.256,0,31.004
		C36.782,37.832,33.869,40.256,32.685,41.479z M35.484,46.439c-0.087-2.16-1.052-3.195-1.181-3.429
		c0.89-0.995,3.067-3.038,7.234-3.364l1.033-0.08v-28.42c0.94-0.195,1.97-0.453,4.119,0.73c0,1.703,0,13.012,0,15.281h2.217V10.574
		c0,0-3.467-2.639-6.336-1.672V3.873l-1.235,0.133c-0.153,0.016-2.968,0.344-5.283,2.156V0.221l-1.638,0.875
		c-0.18,0.096-3.714,2.033-5.842,5.975c-0.008-0.014-0.017-0.027-0.025-0.045v35.246c2.197,0.072,4.729,1.91,4.919,4.168H35.484
		L35.484,46.439z"/>
</g>
<g>
	<rect y="43.697" fill="#2B85BB" width="2.811" height="2.807"/>
	<rect x="26.392" y="50.021" fill="#2B85BB" width="2.81" height="2.805"/>
	<rect x="6.619" y="50.021" fill="#2B85BB" width="2.812" height="2.805"/>
	<rect y="50.021" fill="#2B85BB" width="2.811" height="2.805"/>
	<rect x="19.777" y="50.021" fill="#2B85BB" width="2.809" height="2.805"/>
	<rect x="13.16" y="50.021" fill="#2B85BB" width="2.81" height="2.805"/>
	<rect x="46.402" y="50.021" fill="#2B85BB" width="2.811" height="2.805"/>
	<rect x="33.163" y="50.021" fill="#2B85BB" width="2.811" height="2.805"/>
	<rect x="39.782" y="50.021" fill="#2B85BB" width="2.812" height="2.805"/>
	<rect x="39.782" y="43.768" fill="#2B85BB" width="2.812" height="2.81"/>
	<rect y="37.254" fill="#2B85BB" width="2.811" height="2.811"/>
	<rect x="52.869" y="43.697" fill="#2B85BB" width="2.812" height="2.807"/>
	<rect x="52.869" y="50.021" fill="#2B85BB" width="2.812" height="2.805"/>
	<rect x="26.392" y="56.486" fill="#2B85BB" width="2.81" height="2.807"/>
	<rect x="6.619" y="56.486" fill="#2B85BB" width="2.812" height="2.807"/>
	<rect y="56.486" fill="#2B85BB" width="2.811" height="2.807"/>
	<rect x="19.777" y="56.486" fill="#2B85BB" width="2.809" height="2.807"/>
	<rect x="13.16" y="56.486" fill="#2B85BB" width="2.81" height="2.807"/>
	<rect x="46.402" y="56.486" fill="#2B85BB" width="2.811" height="2.807"/>
	<rect x="33.163" y="56.486" fill="#2B85BB" width="2.811" height="2.807"/>
	<rect x="39.782" y="56.486" fill="#2B85BB" width="2.812" height="2.807"/>
	<rect x="52.869" y="30.812" fill="#2B85BB" width="2.812" height="2.812"/>
	<rect x="52.869" y="37.254" fill="#2B85BB" width="2.812" height="2.811"/>
	<rect x="52.869" y="24.063" fill="#2B85BB" width="2.812" height="2.811"/>
	<rect x="46.307" y="30.812" fill="#2B85BB" width="2.812" height="2.812"/>
	<rect x="46.331" y="43.729" fill="#2B85BB" width="2.811" height="2.81"/>
	<rect x="46.361" y="37.326" fill="#2B85BB" width="2.811" height="2.811"/>
</g>
<path fill="#2B85BB" d="M21.143,46.203c-3.078,0-12.599,0-14.534,0v-35.34c2.544-1.297,4.289-0.982,5.155-0.637v30.973l1.224,0.09
	c4.597,0.334,7.484,2.572,8.704,3.752C21.479,45.371,21.295,45.844,21.143,46.203z M23.439,43.186
	c-1.477-1.377-5.022-3.961-9.563-4.619c0-1.94,0-31.618,0-34.382c3.043,0.441,5.478,3.428,5.478,3.428v29.51l0.766,0.428
	c2.435,1.398,3.946,3.687,4.605,4.863C24.268,42.631,23.838,42.891,23.439,43.186z M26.821,41.188
	c-0.571-1.153-3.301-4.061-5.841-5.735c0-1.175,0-31.334,0-35.451c1.643,1.26,5.018,5.482,5.841,8.414V41.188z"/>
</svg>
